<svg width="252" height="62" viewBox="0 0 252 62" fill="none" xmlns="http://www.w3.org/2000/svg">
<rect width="61.9106" height="61.9106" rx="30.9553" fill="white"/>
<g clip-path="url(#clip0_4124_11153)">
<path d="M13.9299 25.8049C13.9299 25.8049 14.147 16.3096 22.7732 14.2116C23.5874 14.0184 24.4213 13.9235 25.2574 13.9289L47.9831 13.9289V38.5315C47.9831 38.5315 48.0515 45.7702 40.721 47.6226C39.7446 47.8608 38.7432 47.9774 37.7391 47.9698H27.3901V42.3083H35.826C37.2202 42.3241 38.5847 41.8985 39.7303 41.0907C40.4488 40.6082 41.0361 39.9495 41.4378 39.1754C41.8396 38.4013 42.0429 37.5368 42.029 36.6617V19.9475H24.335C22.2565 19.9595 20.2144 20.5022 18.3963 21.5257C16.5781 22.5492 15.0423 24.0207 13.9299 25.8049Z" fill="#FC2861"/>
<path d="M34.6839 27.2939L23.8103 27.3733C22.7747 27.3711 21.7456 27.5386 20.7625 27.8693C18.6614 28.581 15.4745 30.2499 14.3154 33.9771C14.0557 34.8366 13.9281 35.7316 13.9372 36.6306L13.9372 47.9808H20.0231V39.4626C20.0132 38.4325 20.2707 37.4181 20.7698 36.5215C21.0795 35.9562 21.4987 35.4605 22.0019 35.0641C22.5052 34.6678 23.0821 34.379 23.698 34.2152C24.134 34.1079 24.5819 34.0587 25.0304 34.0689H32.0851C32.7443 34.0794 33.3807 33.8234 33.8542 33.3572C33.8933 33.3175 33.9323 33.2753 33.9714 33.2307C34.4122 32.7043 34.6529 32.0348 34.6497 31.3435L34.6839 27.2939Z" fill="#FC2861"/>
</g>
<path d="M89.8323 18.3995C88.7674 18.3995 87.814 18.61 86.972 19.031C86.1548 19.452 85.4614 20.0587 84.8918 20.8512C84.3222 21.6189 83.8889 22.5599 83.5917 23.6743C83.3193 24.7887 83.1831 26.0393 83.1831 27.4261C83.1831 29.3082 83.406 30.9179 83.8517 32.2551C84.3222 33.5676 85.0528 34.5706 86.0433 35.264C87.0339 35.9574 88.2969 36.3041 89.8323 36.3041C90.9219 36.3041 91.9991 36.1803 93.064 35.9326C94.1536 35.685 95.3299 35.3383 96.5929 34.8925V39.6101C95.429 40.0806 94.2775 40.4273 93.1383 40.6502C91.9991 40.8731 90.7238 40.9845 89.3122 40.9845C86.5882 40.9845 84.3346 40.4273 82.5516 39.3129C80.7933 38.1738 79.4932 36.5889 78.6512 34.5582C77.8092 32.5028 77.3882 30.113 77.3882 27.389C77.3882 25.3831 77.6607 23.5505 78.2055 21.8913C78.7503 20.2073 79.5427 18.7586 80.5828 17.5452C81.6477 16.3317 82.9478 15.3907 84.4832 14.7221C86.0433 14.0534 87.8264 13.7191 89.8323 13.7191C91.1448 13.7191 92.4573 13.8925 93.7698 14.2392C95.1071 14.5611 96.3824 15.0068 97.5959 15.5764L95.7757 20.1454C94.7851 19.6749 93.7822 19.2663 92.7668 18.9196C91.7763 18.5729 90.7981 18.3995 89.8323 18.3995Z" fill="#222222"/>
<path d="M107.008 19.9225C109.732 19.9225 111.812 20.5169 113.249 21.7056C114.71 22.8695 115.44 24.6649 115.44 27.0918V40.6131H111.577L110.5 37.8642H110.351C109.782 38.5824 109.187 39.1767 108.568 39.6473C107.974 40.1178 107.281 40.4521 106.488 40.6502C105.72 40.8731 104.767 40.9845 103.628 40.9845C102.439 40.9845 101.362 40.7616 100.396 40.3159C99.4551 39.8454 98.7122 39.1396 98.1674 38.1985C97.6226 37.2327 97.3501 36.0193 97.3501 34.5582C97.3501 32.4037 98.1055 30.8188 99.6161 29.8035C101.127 28.7634 103.393 28.1938 106.414 28.0947L109.943 27.9833V27.0918C109.943 26.0269 109.658 25.2469 109.088 24.7516C108.544 24.2563 107.776 24.0086 106.785 24.0086C105.795 24.0086 104.829 24.1572 103.888 24.4544C102.947 24.7268 102.006 25.0735 101.065 25.4945L99.2446 21.7427C100.334 21.1731 101.535 20.7274 102.848 20.4054C104.185 20.0835 105.572 19.9225 107.008 19.9225ZM107.788 31.2893C106.005 31.3389 104.767 31.6608 104.074 32.2551C103.38 32.8495 103.034 33.6295 103.034 34.5954C103.034 35.4373 103.281 36.0441 103.776 36.4155C104.272 36.7622 104.916 36.9356 105.708 36.9356C106.897 36.9356 107.9 36.5889 108.717 35.8955C109.534 35.1773 109.943 34.1744 109.943 32.8866V31.215L107.788 31.2893Z" fill="#222222"/>
<path d="M129.34 19.9597C129.612 19.9597 129.934 19.9721 130.306 19.9968C130.677 20.0216 130.974 20.0587 131.197 20.1083L130.789 25.3088C130.615 25.2592 130.355 25.2221 130.009 25.1973C129.687 25.1478 129.402 25.123 129.154 25.123C128.436 25.123 127.743 25.2221 127.074 25.4202C126.405 25.5936 125.799 25.8783 125.254 26.2746C124.734 26.6708 124.313 27.2032 123.991 27.8719C123.694 28.5157 123.545 29.3206 123.545 30.2864V40.6131H118.01V20.3312H122.208L123.025 23.7486H123.285C123.681 23.0552 124.177 22.4237 124.771 21.8542C125.365 21.2846 126.046 20.8264 126.814 20.4797C127.606 20.133 128.448 19.9597 129.34 19.9597Z" fill="#222222"/>
<path d="M137.484 40.9845C135.23 40.9845 133.385 40.1054 131.949 38.3471C130.537 36.5641 129.832 33.9515 129.832 30.5093C129.832 27.0423 130.55 24.4173 131.986 22.6342C133.422 20.8512 135.305 19.9597 137.632 19.9597C138.598 19.9597 139.453 20.0959 140.195 20.3683C140.938 20.6159 141.57 20.9626 142.09 21.4084C142.635 21.8542 143.093 22.3618 143.464 22.9314H143.65C143.576 22.5352 143.489 21.9656 143.39 21.2227C143.291 20.455 143.241 19.6749 143.241 18.8824V12.3818H148.776V40.6131H144.542L143.464 37.9757H143.241C142.895 38.5205 142.449 39.0282 141.904 39.4987C141.384 39.9444 140.765 40.3035 140.047 40.5759C139.329 40.8483 138.474 40.9845 137.484 40.9845ZM139.415 36.5641C140.951 36.5641 142.028 36.1184 142.647 35.2268C143.266 34.3106 143.588 32.9485 143.613 31.1407V30.5464C143.613 28.5653 143.303 27.0546 142.684 26.0145C142.09 24.9744 140.976 24.4544 139.341 24.4544C138.128 24.4544 137.174 24.9868 136.481 26.0517C135.787 27.0918 135.441 28.6024 135.441 30.5835C135.441 32.5647 135.787 34.0629 136.481 35.0783C137.174 36.0688 138.152 36.5641 139.415 36.5641Z" fill="#222222"/>
<path d="M167.553 33.2581C167.553 34.8182 167.169 36.1803 166.401 37.3442C165.634 38.5081 164.519 39.412 163.058 40.0559C161.622 40.675 159.864 40.9845 157.783 40.9845C156.867 40.9845 155.963 40.9226 155.072 40.7988C154.205 40.675 153.363 40.5016 152.546 40.2787C151.753 40.0311 150.998 39.7339 150.28 39.3872V34.1496C151.543 34.6944 152.843 35.2021 154.18 35.6726C155.542 36.1184 156.892 36.3412 158.229 36.3412C159.146 36.3412 159.876 36.2174 160.421 35.9698C160.99 35.7221 161.399 35.3878 161.647 34.9668C161.919 34.5458 162.055 34.0629 162.055 33.5181C162.055 32.8495 161.82 32.2799 161.35 31.8094C160.904 31.3389 160.297 30.9055 159.529 30.5093C158.762 30.0883 157.883 29.6425 156.892 29.172C156.273 28.8748 155.604 28.5281 154.886 28.1319C154.168 27.7109 153.475 27.2032 152.806 26.6089C152.162 25.9898 151.63 25.2469 151.209 24.3801C150.788 23.5134 150.577 22.4733 150.577 21.2598C150.577 19.6749 150.936 18.3253 151.654 17.2109C152.397 16.0717 153.437 15.205 154.775 14.6106C156.137 14.0163 157.734 13.7191 159.567 13.7191C160.953 13.7191 162.266 13.8801 163.504 14.202C164.767 14.5239 166.079 14.9821 167.442 15.5764L165.621 19.9597C164.408 19.4644 163.318 19.0806 162.352 18.8082C161.387 18.5357 160.396 18.3995 159.381 18.3995C158.687 18.3995 158.093 18.511 157.598 18.7339C157.102 18.9567 156.719 19.2663 156.446 19.6625C156.199 20.0587 156.075 20.5293 156.075 21.0741C156.075 21.6932 156.26 22.2256 156.632 22.6714C157.003 23.0924 157.561 23.501 158.304 23.8972C159.046 24.2934 159.975 24.764 161.09 25.3088C162.452 25.9526 163.603 26.6213 164.544 27.3147C165.51 28.0081 166.253 28.8253 166.773 29.7663C167.293 30.7074 167.553 31.8713 167.553 33.2581Z" fill="#222222"/>
<path d="M177.191 19.9597C179.073 19.9597 180.682 20.3188 182.02 21.0369C183.382 21.7551 184.434 22.7952 185.177 24.1572C185.92 25.5193 186.291 27.1908 186.291 29.172V31.8465H173.216C173.265 33.4067 173.724 34.6325 174.59 35.524C175.482 36.4155 176.708 36.8613 178.268 36.8613C179.58 36.8613 180.769 36.7375 181.834 36.4898C182.899 36.2174 184.001 35.8088 185.14 35.264V39.5358C184.149 40.0311 183.097 40.3902 181.982 40.6131C180.893 40.8607 179.568 40.9845 178.008 40.9845C175.977 40.9845 174.182 40.6131 172.622 39.8701C171.061 39.1024 169.836 37.9509 168.944 36.4155C168.053 34.8801 167.607 32.9485 167.607 30.6207C167.607 28.2433 168.003 26.2746 168.795 24.7144C169.613 23.1295 170.739 21.9408 172.176 21.1484C173.612 20.3559 175.284 19.9597 177.191 19.9597ZM177.228 23.8972C176.163 23.8972 175.271 24.2439 174.553 24.9373C173.86 25.6307 173.451 26.7079 173.327 28.169H181.091C181.091 27.3518 180.942 26.6213 180.645 25.9774C180.373 25.3335 179.952 24.8259 179.382 24.4544C178.813 24.0829 178.094 23.8972 177.228 23.8972Z" fill="#222222"/>
<path d="M193.219 40.6131H187.684V12.3818H193.219V40.6131Z" fill="#222222"/>
<path d="M201.441 40.6131H195.906V12.3818H201.441V40.6131Z" fill="#222222"/>
<path d="M209.664 20.3312V40.6131H204.129V20.3312H209.664ZM206.915 12.3818C207.732 12.3818 208.438 12.58 209.032 12.9762C209.627 13.3476 209.924 14.0534 209.924 15.0935C209.924 16.1089 209.627 16.8146 209.032 17.2109C208.438 17.6071 207.732 17.8052 206.915 17.8052C206.073 17.8052 205.355 17.6071 204.76 17.2109C204.191 16.8146 203.906 16.1089 203.906 15.0935C203.906 14.0534 204.191 13.3476 204.76 12.9762C205.355 12.58 206.073 12.3818 206.915 12.3818Z" fill="#222222"/>
<path d="M223.867 19.9597C226.046 19.9597 227.792 20.554 229.104 21.7427C230.417 22.9066 231.073 24.7887 231.073 27.389V40.6131H225.538V28.7634C225.538 27.3023 225.278 26.2127 224.758 25.4945C224.238 24.7516 223.409 24.3801 222.269 24.3801C220.585 24.3801 219.434 24.9621 218.815 26.126C218.196 27.2651 217.886 28.912 217.886 31.0665V40.6131H212.351V20.3312H216.586L217.329 22.9314H217.626C218.072 22.238 218.617 21.6808 219.261 21.2598C219.904 20.8141 220.623 20.4921 221.415 20.294C222.208 20.0711 223.025 19.9597 223.867 19.9597Z" fill="#222222"/>
<path d="M240.244 19.9597C241.483 19.9597 242.597 20.2073 243.587 20.7026C244.578 21.1979 245.42 21.9408 246.113 22.9314H246.262L246.708 20.3312H251.388V40.6502C251.388 42.5818 251.004 44.2039 250.237 45.5164C249.494 46.8289 248.367 47.8195 246.856 48.4881C245.346 49.1815 243.476 49.5282 241.247 49.5282C239.811 49.5282 238.474 49.4415 237.235 49.2682C236.022 49.0948 234.833 48.7853 233.669 48.3395V43.9191C234.511 44.2658 235.353 44.5506 236.195 44.7735C237.062 45.0211 237.941 45.1944 238.833 45.2935C239.749 45.4173 240.665 45.4792 241.582 45.4792C243.018 45.4792 244.083 45.0954 244.776 44.3277C245.494 43.56 245.853 42.4085 245.853 40.8731V40.4645C245.853 40.0435 245.866 39.6101 245.891 39.1644C245.94 38.7186 245.977 38.3224 246.002 37.9757H245.853C245.16 39.0405 244.33 39.8082 243.365 40.2787C242.399 40.7493 241.309 40.9845 240.096 40.9845C237.694 40.9845 235.812 40.0682 234.449 38.2357C233.112 36.3784 232.444 33.8029 232.444 30.5093C232.444 28.2805 232.753 26.386 233.372 24.8259C233.991 23.241 234.883 22.0399 236.047 21.2227C237.235 20.3807 238.635 19.9597 240.244 19.9597ZM241.99 24.4544C241.123 24.4544 240.393 24.6897 239.799 25.1602C239.229 25.6059 238.796 26.287 238.498 27.2032C238.226 28.0947 238.09 29.2215 238.09 30.5835C238.09 32.6142 238.412 34.1372 239.056 35.1525C239.699 36.1431 240.702 36.6384 242.064 36.6384C242.783 36.6384 243.402 36.5517 243.922 36.3784C244.442 36.1803 244.863 35.8707 245.185 35.4497C245.531 35.004 245.792 34.4344 245.965 33.741C246.138 33.0476 246.225 32.2056 246.225 31.215V30.5464C246.225 29.0853 246.076 27.909 245.779 27.0175C245.482 26.126 245.024 25.4821 244.405 25.0859C243.786 24.6649 242.981 24.4544 241.99 24.4544Z" fill="#222222"/>
<defs>
<clipPath id="clip0_4124_11153">
<rect width="34.0508" height="34.0508" fill="white" transform="translate(13.9299 13.9297)"/>
</clipPath>
</defs>
</svg>
