<svg width="62" height="62" viewBox="0 0 62 62" fill="none" xmlns="http://www.w3.org/2000/svg">
<rect width="61.9106" height="61.9106" rx="30.9553" fill="white"/>
<g clip-path="url(#clip0_4124_11159)">
<path d="M13.9299 25.8049C13.9299 25.8049 14.147 16.3096 22.7732 14.2116C23.5874 14.0184 24.4213 13.9235 25.2574 13.9289L47.9831 13.9289V38.5315C47.9831 38.5315 48.0515 45.7702 40.721 47.6226C39.7446 47.8608 38.7432 47.9774 37.7391 47.9698H27.3901V42.3083H35.826C37.2202 42.3241 38.5847 41.8985 39.7303 41.0907C40.4488 40.6082 41.0361 39.9495 41.4378 39.1754C41.8396 38.4013 42.0429 37.5368 42.029 36.6617V19.9475H24.335C22.2565 19.9595 20.2144 20.5022 18.3963 21.5257C16.5781 22.5492 15.0423 24.0207 13.9299 25.8049Z" fill="#FC2861"/>
<path d="M34.6839 27.2939L23.8103 27.3733C22.7747 27.3711 21.7455 27.5386 20.7624 27.8693C18.6614 28.581 15.4745 30.2499 14.3154 33.9771C14.0557 34.8366 13.9281 35.7316 13.9371 36.6306L13.9371 47.9808H20.023V39.4626C20.0131 38.4325 20.2707 37.4181 20.7697 36.5215C21.0795 35.9562 21.4986 35.4605 22.0019 35.0641C22.5051 34.6678 23.0821 34.379 23.698 34.2152C24.134 34.1079 24.5819 34.0587 25.0304 34.0689H32.085C32.7443 34.0794 33.3806 33.8234 33.8542 33.3572C33.8932 33.3175 33.9323 33.2753 33.9713 33.2307C34.4122 32.7043 34.6528 32.0348 34.6497 31.3435L34.6839 27.2939Z" fill="#FC2861"/>
</g>
<defs>
<clipPath id="clip0_4124_11159">
<rect width="34.0508" height="34.0508" fill="white" transform="translate(13.9299 13.9297)"/>
</clipPath>
</defs>
</svg>
